<?xml version="1.0" encoding="UTF-8" standalone="no"?>
<svg xmlns="http://www.w3.org/2000/svg" xmlns:svg="http://www.w3.org/2000/svg" xmlns:rdf="http://www.w3.org/1999/02/22-rdf-syntax-ns#" xmlns:cc="http://creativecommons.org/ns#" xmlns:dc="http://purl.org/dc/elements/1.1/" id="svg2" viewBox="0 0 30 37.5" height="40" width="32" version="1.1">
  <metadata id="metadata10">
    <rdf:RDF>
      <cc:Work rdf:about="">
        <dc:format>image/svg+xml</dc:format>
        <dc:type rdf:resource="http://purl.org/dc/dcmitype/StillImage"/>
      </cc:Work>
    </rdf:RDF>
  </metadata>
  <defs id="defs8"/>
  <rect style="visibility:hidden;fill:none;stroke:none" id="canvas" y="23.5" x="0" height="14" width="14"/>
  <g id="g617" transform="translate(11.504237,30.985169)">
    <path id="path1449-7-9-0-2-0-67" style="fill:#666666;fill-opacity:1;stroke-width:0;stroke-linejoin:round;paint-order:stroke fill markers;stop-color:#000000" d="m 3.495763,-30.985169 c -8.28426,0 -15,6.715737 -15,15 0,4.142132 1.10324,6.613568 4.56116,11.196899 3.45792,4.583332 7.89783,9.027822 10.43884,11.303101 2.541009,-2.275279 6.980923,-6.719769 10.438843,-11.303101 3.45792,-4.583331 4.561157,-7.054767 4.561157,-11.196899 0,-8.284263 -6.715737,-15 -15,-15 z"/>
    <g id="g3963" transform="translate(32.190785,23.87629)">
      <circle style="fill:#ffffff;fill-opacity:1;stroke:none;stroke-width:0;stroke-linejoin:round;stroke-dasharray:none;paint-order:stroke fill markers;stop-color:#000000" id="path1449-5-0-9-2-5-1-9" cx="-28.695021" cy="-39.861458" r="12.656251"/>
      <path style="fill:#666666;fill-opacity:1;fill-rule:nonzero;stroke:none;stroke-width:1.00447" d="m -37.152297,-46.35108 c -0.128868,0 -0.253791,0.03676 -0.360351,0.107664 l -2.30713,1.49414 c -0.08052,0.08156 -0.125244,0.193079 -0.125244,0.307619 v 0.50537 c 0,0.115222 0.04472,0.226737 0.125244,0.307619 l 0.549317,0.547119 c 0.121536,0.121532 0.287161,0.191161 0.459228,0.191161 h 5.787598 v 0.43286 l -2.155517,0.384523 c -0.170113,0.03025 -0.321158,0.127423 -0.419678,0.270263 l -1.595216,2.320312 c -0.101939,0.148127 -0.246778,0.260696 -0.415282,0.322999 l -2.052248,0.751465 c -0.170482,0.06291 -0.283446,0.224363 -0.283446,0.406494 v 2.46753 c 0,0.238721 0.194133,0.430664 0.432862,0.430664 h 1.731445 c 0,-1.194547 0.967642,-2.16211 2.16211,-2.16211 1.195572,0 2.164305,0.967563 2.164305,2.16211 h 8.219971 c 0,-1.194547 0.969755,-2.16211 2.164307,-2.16211 1.194456,0 2.16211,0.967563 2.16211,2.16211 h 0.867921 l 2.59497,-0.863525 v -9.085695 c 0,-0.239659 -0.194145,-0.435059 -0.432861,-0.435059 h -5.625001 l -1.731446,-0.863524 z m 0.885499,0.863525 h 3.027832 c 0.119879,0 0.215331,0.0977 0.215331,0.21753 v 1.298583 c 0,0.119833 -0.0955,0.215332 -0.215331,0.215332 h -3.027832 c -0.11988,0 -0.21753,-0.09551 -0.21753,-0.215332 v -1.298583 c 0,-0.119833 0.09763,-0.21753 0.21753,-0.21753 z m 6.488524,2.597168 h 3.46289 c 0.120852,0 0.215332,0.0955 0.215332,0.215332 v 6.490722 c 0,0.119833 -0.09448,0.21753 -0.215332,0.21753 h -3.46289 c -0.118799,0 -0.215332,-0.0977 -0.215332,-0.21753 v -6.490722 c 0,-0.119832 0.09647,-0.215332 0.215332,-0.215332 z m 5.627197,0 h 3.027832 c 0.118919,0 0.215333,0.0955 0.215333,0.215332 v 2.164307 c 0,0.119833 -0.09646,0.217528 -0.215333,0.217528 h -3.027832 c -0.119879,0 -0.21753,-0.09771 -0.21753,-0.217528 v -2.164307 c 0,-0.119832 0.09774,-0.215332 0.21753,-0.215332 z m -10.803954,1.210692 h 1.716065 c 0.119879,0 0.215331,0.09838 0.215331,0.217531 v 1.999512 c 0,0.115487 -0.08875,0.210984 -0.204346,0.215331 l -3.346435,0.149414 c -0.09588,0.0043 -0.178114,-0.06994 -0.182374,-0.164795 -0.0024,-0.03732 0.0098,-0.07302 0.03077,-0.103273 l 1.412842,-2.120359 c 0.07992,-0.120512 0.21335,-0.193361 0.358154,-0.193361 z m -0.663574,4.847168 c -0.955824,0 -1.731446,0.773425 -1.731446,1.72925 0,0.955824 0.775622,1.731446 1.731446,1.731446 0.955824,0 1.729248,-0.775622 1.729248,-1.731446 0,-0.955825 -0.773424,-1.72925 -1.729248,-1.72925 z m 12.548583,0 c -0.955824,0 -1.731445,0.773425 -1.731445,1.72925 0,0.955824 0.775621,1.731446 1.731445,1.731446 0.955728,0 1.729249,-0.775622 1.729249,-1.731446 0,-0.955825 -0.773521,-1.72925 -1.729249,-1.72925 z" id="path5733"/>
    </g>
  </g>
  <path xmlns:dc="http://purl.org/dc/elements/1.1/" xmlns:cc="http://creativecommons.org/ns#" xmlns:rdf="http://www.w3.org/1999/02/22-rdf-syntax-ns#" xmlns:svg="http://www.w3.org/2000/svg" xmlns="http://www.w3.org/2000/svg" style="font-style:normal;font-variant:normal;font-weight:900;font-stretch:normal;font-size:11.71098423px;line-height:125%;font-family:'Noto Sans';-inkscape-font-specification:'Noto Sans, Heavy';font-variant-ligatures:normal;font-variant-caps:normal;font-variant-numeric:normal;font-feature-settings:normal;text-align:end;letter-spacing:0px;word-spacing:0px;writing-mode:lr-tb;text-anchor:end;fill:#ff0000;fill-opacity:1;stroke:none;stroke-width:0.9375px;stroke-linecap:butt;stroke-linejoin:miter;stroke-opacity:1" d="m 22.96875,19.762502 0.611113,11.286458 h 3.934025 L 28.125,19.762502 Z m 2.56667,13.169442 c -0.683996,0 -1.278834,0.169817 -1.783682,0.511808 -0.488565,0.341994 -0.733336,0.936833 -0.733336,1.783679 0,0.797989 0.244771,1.375746 0.733336,1.73403 0.504848,0.35828 1.099687,0.538539 1.783682,0.538539 0.667704,0 1.245458,-0.180263 1.734024,-0.538539 0.488565,-0.358284 0.733332,-0.936041 0.733332,-1.73403 0,-0.846846 -0.244767,-1.441685 -0.733332,-1.783679 -0.488566,-0.341996 -1.06632,-0.511808 -1.734024,-0.511808 z" id="path826-8"/>
</svg>
