<?xml version="1.0" encoding="UTF-8" standalone="no"?>
<svg xmlns:inkscape="http://www.inkscape.org/namespaces/inkscape" xmlns:sodipodi="http://sodipodi.sourceforge.net/DTD/sodipodi-0.dtd" xmlns="http://www.w3.org/2000/svg" xmlns:svg="http://www.w3.org/2000/svg" xmlns:rdf="http://www.w3.org/1999/02/22-rdf-syntax-ns#" xmlns:cc="http://creativecommons.org/ns#" xmlns:dc="http://purl.org/dc/elements/1.1/" id="svg2" viewBox="0 0 30 37.5" height="40" width="32" version="1.1" sodipodi:docname="m_backcountry.svg" inkscape:version="1.2.2 (b0a8486541, 2022-12-01)">
  <sodipodi:namedview id="namedview291" pagecolor="#ffffff" bordercolor="#666666" borderopacity="1.0" inkscape:showpageshadow="2" inkscape:pageopacity="0.0" inkscape:pagecheckerboard="0" inkscape:deskcolor="#d1d1d1" showgrid="false" inkscape:zoom="8.34386" inkscape:cx="5.6928088" inkscape:cy="25.168207" inkscape:window-width="1401" inkscape:window-height="885" inkscape:window-x="266" inkscape:window-y="80" inkscape:window-maximized="0" inkscape:current-layer="g4431"/>
  <metadata id="metadata10">
    <rdf:RDF>
      <cc:Work rdf:about="">
        <dc:format>image/svg+xml</dc:format>
        <dc:type rdf:resource="http://purl.org/dc/dcmitype/StillImage"/>
      </cc:Work>
    </rdf:RDF>
  </metadata>
  <defs id="defs8"/>
  <rect style="visibility:hidden;fill:none;stroke:none" id="canvas" y="23.5" x="0" height="14" width="14"/>
  <g id="g617" transform="translate(11.504237,30.985169)">
    <g id="g4431" transform="translate(6.236071,0.098561)">
      <path id="path1449-7-9-0-2-0-67" style="fill:#666666;fill-opacity:1;stroke-width:0;stroke-linejoin:round;paint-order:stroke fill markers;stop-color:#000000" d="m -2.740308,-31.08373 c -8.28426,0 -15,6.715737 -15,15 0,4.142132 1.10324,6.613568 4.56116,11.196899 3.45792,4.583332 7.89783,9.027822 10.43884,11.303101 2.541009,-2.275279 6.980923,-6.719769 10.438843,-11.303101 3.45792,-4.583331 4.561157,-7.054767 4.561157,-11.196899 0,-8.284263 -6.715737,-15 -15,-15 z"/>
      <circle style="fill:#ffffff;fill-opacity:1;stroke:none;stroke-width:0;stroke-linejoin:round;stroke-dasharray:none;paint-order:stroke fill markers;stop-color:#000000" id="path1449-5-0-9-2" cx="-2.740308" cy="-16.08317" r="12.65625"/>
      <g id="g5857-6-2-3" transform="matrix(0.95238202,0,0,0.95238202,-16.062956,-32.189356)" style="fill:#666666;fill-opacity:1;stroke-width:1.05">
        <path id="path2496-7-3-6" d="m 20.197522,5.9490886 -1.500886,4.5802934 h 0.750443 l -1.500887,4.580293 h 0.750444 L 16.45234,20.25177 h 3.369958 v 2.300881 h 0.750448 V 20.25177 h 3.250357 l 0.0094,-0.06794 -2.134075,-5.07411 h 0.750444 l -1.500886,-4.580296 h 0.750444 z" style="fill:#666666;fill-opacity:1;fill-rule:evenodd;stroke:none;stroke-width:0.11521px;stroke-linecap:butt;stroke-linejoin:miter;stroke-opacity:1"/>
        <path style="fill:#666666;fill-opacity:1;stroke-width:1.72125" id="camping-5-7-0" d="m 17.270025,24.548807 -5.624999,-10.312501 0.9375,-2.812499 h -0.9375 l -0.9375,1.874999 -0.9375006,-1.874999 H 8.832525 L 9.7700254,14.236306 4.145025,24.548807 Z m -6.5625,-6.562501 2.812501,5.625002 H 7.8950252 Z"/>
        <path id="path2496-6-3-5-6" d="m 15.632511,4.8613066 -0.808619,2.467679 h 0.404309 l -0.808619,2.46768 h 0.40431 l -1.209137,2.7703574 h 1.8156 v 1.239623 h 0.404311 v -1.239623 h 1.751163 l 0.0052,-0.03661 -1.149824,-2.7337284 h 0.40431 L 16.03683,7.3290036 h 0.404309 z" style="fill:#666666;fill-opacity:1;fill-rule:evenodd;stroke:none;stroke-width:0.0620702px;stroke-linecap:butt;stroke-linejoin:miter;stroke-opacity:1"/>
      </g>
    </g>
  </g>
  <path xmlns:dc="http://purl.org/dc/elements/1.1/" xmlns:cc="http://creativecommons.org/ns#" xmlns:rdf="http://www.w3.org/1999/02/22-rdf-syntax-ns#" xmlns:svg="http://www.w3.org/2000/svg" xmlns="http://www.w3.org/2000/svg" style="font-style:normal;font-variant:normal;font-weight:900;font-stretch:normal;font-size:11.71098423px;line-height:125%;font-family:'Noto Sans';-inkscape-font-specification:'Noto Sans, Heavy';font-variant-ligatures:normal;font-variant-caps:normal;font-variant-numeric:normal;font-feature-settings:normal;text-align:end;letter-spacing:0px;word-spacing:0px;writing-mode:lr-tb;text-anchor:end;fill:#ff0000;fill-opacity:1;stroke:none;stroke-width:0.9375px;stroke-linecap:butt;stroke-linejoin:miter;stroke-opacity:1" d="m 22.96875,19.762502 0.611113,11.286458 h 3.934025 L 28.125,19.762502 Z m 2.56667,13.169442 c -0.683996,0 -1.278834,0.169817 -1.783682,0.511808 -0.488565,0.341994 -0.733336,0.936833 -0.733336,1.783679 0,0.797989 0.244771,1.375746 0.733336,1.73403 0.504848,0.35828 1.099687,0.538539 1.783682,0.538539 0.667704,0 1.245458,-0.180263 1.734024,-0.538539 0.488565,-0.358284 0.733332,-0.936041 0.733332,-1.73403 0,-0.846846 -0.244767,-1.441685 -0.733332,-1.783679 -0.488566,-0.341996 -1.06632,-0.511808 -1.734024,-0.511808 z" id="path826-8"/>
</svg>
