<?xml version="1.0" encoding="UTF-8" standalone="no"?>
<svg xmlns="http://www.w3.org/2000/svg" xmlns:svg="http://www.w3.org/2000/svg" xmlns:rdf="http://www.w3.org/1999/02/22-rdf-syntax-ns#" xmlns:cc="http://creativecommons.org/ns#" xmlns:dc="http://purl.org/dc/elements/1.1/" id="svg2" viewBox="0 0 30 37.5" height="40" width="32" version="1.1">
  <metadata id="metadata10">
    <rdf:RDF>
      <cc:Work rdf:about="">
        <dc:format>image/svg+xml</dc:format>
        <dc:type rdf:resource="http://purl.org/dc/dcmitype/StillImage"/>
      </cc:Work>
    </rdf:RDF>
  </metadata>
  <defs id="defs8"/>
  <rect style="visibility:hidden;fill:none;stroke:none" id="canvas" y="23.5" x="0" height="14" width="14"/>
  <g id="g617" transform="translate(11.504237,30.985169)">
    <path id="path1449-7-9-0-2-0-67" style="fill:#000080;fill-opacity:1;stroke-width:0;stroke-linejoin:round;paint-order:stroke fill markers;stop-color:#000000" d="m 3.495763,-30.985169 c -8.28426,0 -15,6.715737 -15,15 0,4.142132 1.10324,6.613568 4.56116,11.196899 3.45792,4.583332 7.89783,9.027822 10.43884,11.303101 2.541009,-2.275279 6.980923,-6.719769 10.438843,-11.303101 3.45792,-4.583331 4.561157,-7.054767 4.561157,-11.196899 0,-8.284263 -6.715737,-15 -15,-15 z"/>
    <rect style="visibility:hidden;fill:none;stroke:none" id="canvas-1" y="-17.360535" x="-1.6292367" height="14" width="14"/>
    <circle style="fill:#ffffff;fill-opacity:1;stroke:none;stroke-width:0;stroke-linejoin:round;stroke-dasharray:none;paint-order:stroke fill markers;stop-color:#000000" id="path1449-5-0-9-2-5-2" cx="3.4957633" cy="-15.985168" r="12.65625"/>
    <g id="g1397" transform="matrix(0.83333333,0,0,0.83333333,3.7632413,-11.151043)" style="stroke-width:1.2">
      <path style="fill:#5050ff;fill-opacity:1;stroke-width:2.51591" id="camping-5" d="m 13.718345,-2.4648137 -6.4285713,-11.7857153 1.071429,-3.214285 h -1.071429 l -1.071428,2.142856 -1.07143,-2.142856 h -1.071429 l 1.071429,3.214285 -6.428571,11.7857153 z m -7.5000003,-7.500001 3.214285,6.428572 h -6.428571 z"/>
      <path d="m -9.7495458,-9.2695924 c -1.4732142,0 -2.9464282,1.4999986 -2.9464282,2.9999971 v 6.00000425 c 0,1.50000055 1.473214,3.00000115 2.9464282,3.00000115 h 1.5652906 c 0.3434295,-1.708815 1.8111361,-3.00000115 3.5909598,-3.00000115 1.7798256,0 3.2475318,1.29118615 3.5909599,3.00000115 h 8.9313616 c 0,0 0,-1.5000006 -1.4732157,-1.5000006 H 4.2459888 v -7.5000048 c 0,-1.4409948 -1.5090664,-2.9999971 -2.9464254,-2.9999971 z m 5.1562504,10.5000019 c -1.2204502,0 -2.2098217,1.0073565 -2.2098217,2.2500003 0,1.2426389 0.9893715,2.2499983 2.2098217,2.2499983 1.2204497,0 2.2098215,-1.0073594 2.2098215,-2.2499983 0,-1.2426438 -0.9893718,-2.2500003 -2.2098215,-2.2500003 z" id="caravan" style="fill:#000080;fill-opacity:1;stroke:none;stroke-width:1.5597"/>
      <path id="caravan-7" style="fill:#ffffff;fill-opacity:1;stroke:none;stroke-width:1.5597" d="m -8.3389922,-6.2774688 c -0.040279,-0.0029 -0.097937,-0.0029 -0.1669875,0.0088 -0.4143288,0.07032 -1.2436193,0.373535 -1.2436193,1.498535 0,1.499999 1.4743261,1.500732 1.4743261,1.500732 h 2.9464533 c 0,0 1.4721281,-7.33e-4 1.4721281,-1.500732 0,-1.500002 -1.4721281,-1.498535 -1.4721281,-1.498535 h -2.9464533 c 0,0 -0.023439,-0.0059 -0.063719,-0.0088 z m 7.42875399,0.0088 c 0,0 -1.47212809,-0.0015 -1.47212809,1.498535 0,1.499999 1.47212809,1.500732 1.47212809,1.500732 h 0.73606409 c 0,0 1.47432522,-7.33e-4 1.47432522,-1.500732 0,-1.500002 -1.47432522,-1.498535 -1.47432522,-1.498535 z"/>
    </g>
  </g>
  <path xmlns:dc="http://purl.org/dc/elements/1.1/" xmlns:cc="http://creativecommons.org/ns#" xmlns:rdf="http://www.w3.org/1999/02/22-rdf-syntax-ns#" xmlns:svg="http://www.w3.org/2000/svg" xmlns="http://www.w3.org/2000/svg" style="font-style:normal;font-variant:normal;font-weight:900;font-stretch:normal;font-size:11.71098423px;line-height:125%;font-family:'Noto Sans';-inkscape-font-specification:'Noto Sans, Heavy';font-variant-ligatures:normal;font-variant-caps:normal;font-variant-numeric:normal;font-feature-settings:normal;text-align:end;letter-spacing:0px;word-spacing:0px;writing-mode:lr-tb;text-anchor:end;fill:#ff0000;fill-opacity:1;stroke:none;stroke-width:0.9375px;stroke-linecap:butt;stroke-linejoin:miter;stroke-opacity:1" d="m 22.96875,19.762502 0.611113,11.286458 h 3.934025 L 28.125,19.762502 Z m 2.56667,13.169442 c -0.683996,0 -1.278834,0.169817 -1.783682,0.511808 -0.488565,0.341994 -0.733336,0.936833 -0.733336,1.783679 0,0.797989 0.244771,1.375746 0.733336,1.73403 0.504848,0.35828 1.099687,0.538539 1.783682,0.538539 0.667704,0 1.245458,-0.180263 1.734024,-0.538539 0.488565,-0.358284 0.733332,-0.936041 0.733332,-1.73403 0,-0.846846 -0.244767,-1.441685 -0.733332,-1.783679 -0.488566,-0.341996 -1.06632,-0.511808 -1.734024,-0.511808 z" id="path826-8"/>
</svg>
